# xmcd
#
# Track frame offsets:
#	150
#	17366
#	34098
#	50113
#	67088
#	80292
#	97339
#	108758
#	126082
#	141121
#	158421
#	172894
#	188141
#	201084
#	217818
#	234758
#	247724
#	259787
#	279066
#	295083
#	310252
#	325035
#
# Disc length: 4505 seconds
#
# Revision: 0
# Processed by: cddbd v1.5.2PL0 Copyright (c) Steve Scherf et al.
# Submitted via: dBpowerAMP V4.0
#
DISCID=1e119716
DTITLE=Varios - Show Sertanejo
DYEAR=1900
DGENRE=Country
TTITLE0=Pedro e Tiago - Insensatez
TTITLE1=Rodrigo e Ricardo - Horizonte Azul
TTITLE2=Carlos e Jader - E Dai
TTITLE3=Marta Cecilia e Rodrigo - Delicia
TTITLE4=Jorge e Mateus - Pirraça
TTITLE5=Eduardo Costa - Eu Aposto
TTITLE6=Cesar Menotti e Fabiano - Ciumenta
TTITLE7=Rick e Renner - Negativo ou Positivo
TTITLE8=Marco e Mario - 24 Horas Ao Seu Lado
TTITLE9=Gilson e Junior - Namorar e Bom Demais
TTITLE10=Mattos e Mateus - Agora Quer Mulher
TTITLE11=Leonardo - Se Entrega Amor
TTITLE12=Walmir e Wilmar - Desse Sonho Não Quero Acordar
TTITLE13=Daniel - Pode Ser
TTITLE14=Bonde Sertanejo - Agora
TTITLE15=Carlos Fabio e Pacito - O Bicho Pega
TTITLE16=Bonde do Forro - Pisa de Mansinho
TTITLE17=Marilia Dutra - Sonhar é Amar Você
TTITLE18=Marcelinho de Lima e Camargo - Minha Doce Menina
TTITLE19=Lenno e Lincoln - Programa de Indio
TTITLE20=João Neto e Frederico - Meu Anjo
TTITLE21=Guilherme e Eduardo - Melô do Gago
EXTD=SHOW SERTANEJO
EXTT0=
EXTT1=
EXTT2=
EXTT3=
EXTT4=
EXTT5=
EXTT6=
EXTT7=
EXTT8=
EXTT9=
EXTT10=
EXTT11=
EXTT12=
EXTT13=
EXTT14=
EXTT15=
EXTT16=
EXTT17=
EXTT18=
EXTT19=
EXTT20=
EXTT21=
PLAYORDER=
